#tb 0: 1001/24000
#media_type 0: video
#codec_id 0: rawvideo
#dimensions 0: 640x360
#sar 0: 1/1
0,          0,          0,        1,   345600, 0xa1e65077
0,          1,          1,        1,   345600, 0xa1e65077
0,          2,          2,        1,   345600, 0xa1e65077
0,          3,          3,        1,   345600, 0xa1e65077
0,          4,          4,        1,   345600, 0xa1e65077
0,          5,          5,        1,   345600, 0xa1e65077
0,          6,          6,        1,   345600, 0xa1e65077
0,          7,          7,        1,   345600, 0xa1e65077
0,          8,          8,        1,   345600, 0xa1e65077
0,          9,          9,        1,   345600, 0xa1e65077
0,         10,         10,        1,   345600, 0xa1e65077
0,         11,         11,        1,   345600, 0xa1e65077
0,         12,         12,        1,   345600, 0xa1e65077
0,         13,         13,        1,   345600, 0xa1e65077
0,         14,         14,        1,   345600, 0xa1e65077
0,         15,         15,        1,   345600, 0xa1e65077
0,         16,         16,        1,   345600, 0xa1e65077
0,         17,         17,        1,   345600, 0xa1e65077
0,         18,         18,        1,   345600, 0xa1e65077
0,         19,         19,        1,   345600, 0xa1e65077
0,         20,         20,        1,   345600, 0xa1e65077
0,         21,         21,        1,   345600, 0xa1e65077
0,         22,         22,        1,   345600, 0xa1e65077
0,         23,         23,        1,   345600, 0xa1e65077
0,         24,         24,        1,   345600, 0xa1e65077
0,         25,         25,        1,   345600, 0xa1e65077
0,         26,         26,        1,   345600, 0xa1e65077
0,         27,         27,        1,   345600, 0xa1e65077
0,         28,         28,        1,   345600, 0xa1e65077
0,         29,         29,        1,   345600, 0xa1e65077
0,         30,         30,        1,   345600, 0xa1e65077
0,         31,         31,        1,   345600, 0xa1e65077
0,         32,         32,        1,   345600, 0x07059a25
0,         33,         33,        1,   345600, 0xc917003c
0,         34,         34,        1,   345600, 0xab5b7227
0,         35,         35,        1,   345600, 0xd393c4c4
0,         36,         36,        1,   345600, 0x7eab2e81
0,         37,         37,        1,   345600, 0x203a9404
0,         38,         38,        1,   345600, 0x0d84f956
0,         39,         39,        1,   345600, 0xfed15b41
0,         40,         40,        1,   345600, 0x1659bdb4
0,         41,         41,        1,   345600, 0xffd82d2c
0,         42,         42,        1,   345600, 0xeada9083
0,         43,         43,        1,   345600, 0xeb28f693
0,         44,         44,        1,   345600, 0xf2a8f693
0,         45,         45,        1,   345600, 0xf2a8f693
0,         46,         46,        1,   345600, 0xf2a8f693
0,         47,         47,        1,   345600, 0xf2a8f693
0,         48,         48,        1,   345600, 0xf2a8f693
0,         49,         49,        1,   345600, 0xf2a8f693
0,         50,         50,        1,   345600, 0xf2a8f693
0,         51,         51,        1,   345600, 0xf2a8f693
0,         52,         52,        1,   345600, 0xf2a8f693
0,         53,         53,        1,   345600, 0xf2a8f693
0,         54,         54,        1,   345600, 0xf2a8f693
0,         55,         55,        1,   345600, 0xf2a8f693
0,         56,         56,        1,   345600, 0xf2a8f693
0,         57,         57,        1,   345600, 0x19cbf6d0
0,         58,         58,        1,   345600, 0x19cbf6d0
0,         59,         59,        1,   345600, 0x19cbf6d0
0,         60,         60,        1,   345600, 0x19cbf6d0
0,         61,         61,        1,   345600, 0x19cbf6d0
0,         62,         62,        1,   345600, 0x19cbf6d0
0,         63,         63,        1,   345600, 0x19cbf6d0
0,         64,         64,        1,   345600, 0x19cbf6d0
0,         65,         65,        1,   345600, 0x19cbf6d0
0,         66,         66,        1,   345600, 0x19cbf6d0
0,         67,         67,        1,   345600, 0x19cbf6d0
0,         68,         68,        1,   345600, 0x19cbf6d0
0,         69,         69,        1,   345600, 0x19cbf6d0
0,         70,         70,        1,   345600, 0x19cbf6d0
0,         71,         71,        1,   345600, 0x19cbf6d0
0,         72,         72,        1,   345600, 0x19cbf6d0
0,         73,         73,        1,   345600, 0x19cbf6d0
0,         74,         74,        1,   345600, 0x19cbf6d0
0,         75,         75,        1,   345600, 0x19cbf6d0
0,         76,         76,        1,   345600, 0x19cbf6d0
0,         77,         77,        1,   345600, 0x19cbf6d0
0,         78,         78,        1,   345600, 0x19cbf6d0
0,         79,         79,        1,   345600, 0x19cbf6d0
0,         80,         80,        1,   345600, 0x19cbf6d0
0,         81,         81,        1,   345600, 0x19cbf6d0
0,         82,         82,        1,   345600, 0x19cbf6d0
0,         83,         83,        1,   345600, 0x19cbf6d0
0,         84,         84,        1,   345600, 0x19cbf6d0
0,         85,         85,        1,   345600, 0x19cbf6d0
0,         86,         86,        1,   345600, 0x19cbf6d0
0,         87,         87,        1,   345600, 0x19cbf6d0
0,         88,         88,        1,   345600, 0x19cbf6d0
0,         89,         89,        1,   345600, 0x19cbf6d0
0,         90,         90,        1,   345600, 0x19cbf6d0
0,         91,         91,        1,   345600, 0x19cbf6d0
0,         92,         92,        1,   345600, 0x19cbf6d0
0,         93,         93,        1,   345600, 0x19cbf6d0
0,         94,         94,        1,   345600, 0x19cbf6d0
0,         95,         95,        1,   345600, 0x19cbf6d0
0,         96,         96,        1,   345600, 0x19cbf6d0
0,         97,         97,        1,   345600, 0x19cbf6d0
0,         98,         98,        1,   345600, 0x19cbf6d0
0,         99,         99,        1,   345600, 0x19cbf6d0
0,        100,        100,        1,   345600, 0x19cbf6d0
0,        101,        101,        1,   345600, 0x19cbf6d0
0,        102,        102,        1,   345600, 0x19cbf6d0
0,        103,        103,        1,   345600, 0x19cbf6d0
0,        104,        104,        1,   345600, 0x19cbf6d0
0,        105,        105,        1,   345600, 0x19cbf6d0
0,        106,        106,        1,   345600, 0x19cbf6d0
